<?xml version="1.0" encoding="UTF-8"?>
<svg id="Camada_2" data-name="Camada 2" xmlns="http://www.w3.org/2000/svg" viewBox="0 0 355.94 97.86">
  <defs>
    <style>
      .cls-1 {
        fill: #fff;
      }

      .cls-2 {
        fill: #c00d0d;
      }
    </style>
  </defs>
  <g id="Camada_1-2" data-name="Camada 1">
    <g>
      <g>
        <path class="cls-1" d="M71.73,81.65v12.34h-1.25v-9.87l-4.85,8.3h-.62l-4.85-8.25v9.82h-1.25v-12.34h1.07l5.36,9.15,5.3-9.15h1.08Z"/>
        <path class="cls-1" d="M83.48,90.69h-6.87l-1.48,3.3h-1.36l5.64-12.34h1.29l5.64,12.34h-1.37l-1.48-3.3ZM83,89.63l-2.96-6.63-2.96,6.63h5.92Z"/>
        <path class="cls-1" d="M96.8,93.99l-2.82-3.97c-.32.04-.63.05-.99.05h-3.31v3.91h-1.3v-12.34h4.62c3.14,0,5.04,1.59,5.04,4.23,0,1.94-1.02,3.3-2.82,3.88l3.01,4.23h-1.43ZM96.72,85.88c0-1.97-1.3-3.1-3.77-3.1h-3.28v6.19h3.28c2.47,0,3.77-1.15,3.77-3.08Z"/>
        <path class="cls-1" d="M100.02,87.82c0-3.61,2.75-6.27,6.47-6.27,1.8,0,3.42.6,4.51,1.8l-.83.83c-1-1.02-2.24-1.46-3.65-1.46-2.98,0-5.22,2.19-5.22,5.11s2.24,5.11,5.22,5.11c1.41,0,2.64-.44,3.65-1.48l.83.83c-1.09,1.2-2.71,1.82-4.53,1.82-3.7,0-6.45-2.66-6.45-6.27Z"/>
        <path class="cls-1" d="M121.2,90.69h-6.87l-1.48,3.3h-1.36l5.64-12.34h1.29l5.64,12.34h-1.37l-1.48-3.3ZM120.72,89.63l-2.96-6.63-2.96,6.63h5.92Z"/>
        <path class="cls-1" d="M124.91,92.49l.51-1c.88.86,2.45,1.5,4.07,1.5,2.31,0,3.31-.97,3.31-2.18,0-3.38-7.6-1.3-7.6-5.87,0-1.82,1.41-3.38,4.55-3.38,1.39,0,2.84.41,3.82,1.09l-.44,1.04c-1.06-.69-2.29-1.02-3.38-1.02-2.26,0-3.26,1-3.26,2.24,0,3.38,7.6,1.34,7.6,5.83,0,1.82-1.44,3.37-4.6,3.37-1.85,0-3.67-.65-4.58-1.6Z"/>
        <path class="cls-1" d="M150.37,94.18l-1.71-1.76c-1.04,1.11-2.45,1.67-4.12,1.67-2.41,0-4.14-1.27-4.14-3.14,0-1.46.85-2.54,3.1-3.84-1.2-1.23-1.55-1.97-1.55-2.93,0-1.57,1.22-2.63,3.12-2.63,1.75,0,2.87.92,2.87,2.45,0,1.23-.74,2.1-2.75,3.26l3.38,3.49c.37-.65.65-1.44.83-2.38l1.02.32c-.23,1.11-.6,2.06-1.09,2.84l1.76,1.82-.72.83ZM147.92,91.66l-3.72-3.82c-1.97,1.13-2.57,1.9-2.57,3,0,1.34,1.2,2.22,2.98,2.22,1.34,0,2.47-.46,3.31-1.39ZM143.11,84.17c0,.72.26,1.23,1.39,2.38,1.78-1.02,2.36-1.64,2.36-2.52s-.65-1.53-1.8-1.53c-1.23,0-1.96.69-1.96,1.67Z"/>
        <path class="cls-1" d="M156.85,87.82c0-3.61,2.75-6.27,6.47-6.27,1.8,0,3.42.6,4.51,1.8l-.83.83c-1-1.02-2.24-1.46-3.65-1.46-2.98,0-5.22,2.19-5.22,5.11s2.24,5.11,5.22,5.11c1.41,0,2.64-.44,3.65-1.48l.83.83c-1.09,1.2-2.71,1.82-4.53,1.82-3.7,0-6.45-2.66-6.45-6.27Z"/>
        <path class="cls-1" d="M169.26,87.82c0-3.6,2.75-6.27,6.49-6.27s6.47,2.66,6.47,6.27-2.77,6.27-6.47,6.27-6.49-2.68-6.49-6.27ZM180.9,87.82c0-2.94-2.2-5.11-5.16-5.11s-5.2,2.17-5.2,5.11,2.22,5.11,5.2,5.11,5.16-2.17,5.16-5.11Z"/>
        <path class="cls-1" d="M197.94,81.65v12.34h-1.25v-9.87l-4.85,8.3h-.62l-4.85-8.25v9.82h-1.25v-12.34h1.07l5.36,9.15,5.3-9.15h1.08Z"/>
        <path class="cls-1" d="M201.85,88.72v-7.07h1.3v7.01c0,2.93,1.37,4.26,3.77,4.26s3.79-1.34,3.79-4.26v-7.01h1.27v7.07c0,3.54-1.9,5.38-5.06,5.38s-5.08-1.83-5.08-5.38Z"/>
        <path class="cls-1" d="M226.22,81.65v12.34h-1.08l-7.93-10.01v10.01h-1.3v-12.34h1.07l7.95,10.01v-10.01h1.29Z"/>
        <path class="cls-1" d="M230.23,81.65h1.3v12.34h-1.3v-12.34Z"/>
        <path class="cls-1" d="M234.46,87.82c0-3.61,2.75-6.27,6.47-6.27,1.8,0,3.42.6,4.51,1.8l-.83.83c-1-1.02-2.24-1.46-3.65-1.46-2.98,0-5.22,2.19-5.22,5.11s2.24,5.11,5.22,5.11c1.41,0,2.64-.44,3.65-1.48l.83.83c-1.09,1.2-2.71,1.82-4.53,1.82-3.7,0-6.45-2.66-6.45-6.27Z"/>
        <path class="cls-1" d="M255.64,90.69h-6.87l-1.48,3.3h-1.36l5.64-12.34h1.29l5.64,12.34h-1.37l-1.48-3.3ZM255.16,89.63l-2.96-6.63-2.96,6.63h5.92Z"/>
        <path class="cls-1" d="M269.42,91.45l.83.83c-1.07,1.18-2.68,1.8-4.46,1.82l-.21.81c.97.09,1.5.65,1.5,1.43,0,.95-.81,1.53-1.99,1.53-.58,0-1.06-.12-1.48-.41l.3-.67c.35.23.74.33,1.16.33.7,0,1.09-.3,1.09-.83,0-.48-.35-.81-1.09-.81h-.41l.37-1.43c-3.35-.3-5.76-2.85-5.76-6.24,0-3.61,2.75-6.27,6.47-6.27,1.8,0,3.42.6,4.51,1.8l-.83.83c-1-1.02-2.24-1.46-3.65-1.46-2.98,0-5.22,2.19-5.22,5.11s2.24,5.11,5.22,5.11c1.41,0,2.64-.44,3.65-1.48Z"/>
        <path class="cls-1" d="M280.45,90.69h-6.87l-1.48,3.3h-1.36l5.64-12.34h1.29l5.64,12.34h-1.37l-1.48-3.3ZM279.97,89.63l-2.96-6.63-2.96,6.63h5.92ZM275,80.47h-.76c.04-1.18.65-1.94,1.59-1.94,1.09,0,1.62,1.2,2.31,1.2.53,0,.88-.42.92-1.09h.76c-.04,1.15-.65,1.9-1.59,1.9-1.09,0-1.6-1.2-2.31-1.2-.53,0-.88.42-.92,1.13Z"/>
        <path class="cls-1" d="M284.07,87.82c0-3.6,2.75-6.27,6.49-6.27s6.47,2.66,6.47,6.27-2.77,6.27-6.47,6.27-6.49-2.68-6.49-6.27ZM295.72,87.82c0-2.94-2.2-5.11-5.16-5.11s-5.2,2.17-5.2,5.11,2.22,5.11,5.2,5.11,5.16-2.17,5.16-5.11Z"/>
      </g>
      <path class="cls-1" d="M82.8,0v69h13.8v-27.6h9.53c11.43,0,20.7-9.27,20.7-20.7h0c0-11.43-9.27-20.7-20.7-20.7h-23.33ZM106.13,27.6h-9.53v-13.8h9.53c3.81,0,6.9,3.09,6.9,6.9h0c0,3.81-3.09,6.9-6.9,6.9Z"/>
      <path class="cls-1" d="M321.44,0h0C302.39,0,286.94,15.45,286.94,34.5h0c0,19.05,15.45,34.5,34.5,34.5h0c19.05,0,34.5-15.45,34.5-34.5h0C355.94,15.45,340.49,0,321.44,0ZM342.14,34.5c0,11.43-9.27,20.7-20.7,20.7h0c-11.43,0-20.7-9.27-20.7-20.7h0c0-11.43,9.27-20.7,20.7-20.7h0c11.43,0,20.7,9.27,20.7,20.7h0Z"/>
      <polygon class="cls-1" points="144.02 0 116.42 69 130.22 69 144.02 34.5 157.82 69 171.62 69 144.02 0"/>
      <polygon class="cls-1" points="48.3 33.12 20.7 0 20.7 69 34.5 69 34.5 33.12 34.6 33.24 34.57 33.23 48.3 49.71 62.03 33.23 62 33.24 62.1 33.12 62.1 69 75.9 69 75.9 0 48.3 33.12"/>
      <polygon class="cls-1" points="0 69 13.8 69 13.8 15.22 0 1.42 0 69"/>
      <polygon class="cls-2" points="1.06 0 13.8 12.74 13.8 0 1.06 0"/>
      <path class="cls-1" d="M181.82,34.5h0c0,11.43,9.27,20.7,20.7,20.7h5.74l13.8,13.8h-19.54c-19.05,0-34.5-15.45-34.5-34.5h0C168.02,15.45,183.47,0,202.52,0h20.7v13.8h-20.7c-11.43,0-20.7,9.27-20.7,20.7Z"/>
      <polygon class="cls-2" points="223.22 68.03 210.39 55.2 223.22 55.2 223.22 68.03"/>
      <polygon class="cls-1" points="270.57 0 264.82 0 251.02 0 230.32 0 230.32 13.8 251.02 13.8 251.02 69 264.82 69 264.82 13.8 284.37 13.8 270.57 0"/>
      <polygon class="cls-2" points="272.43 0 285.52 13.1 285.52 0 272.43 0"/>
    </g>
  </g>
</svg>